<?xml version="1.0" encoding="UTF-8" standalone="no"?>
<!-- Created with Inkscape (http://www.inkscape.org/) -->

<svg
   xmlns:dc="http://purl.org/dc/elements/1.1/"
   xmlns:cc="http://creativecommons.org/ns#"
   xmlns:rdf="http://www.w3.org/1999/02/22-rdf-syntax-ns#"
   xmlns:svg="http://www.w3.org/2000/svg"
   xmlns="http://www.w3.org/2000/svg"
   version="1.2"
   width="744.09448"
   height="1052.3622"
   id="svg2">
  <defs
     id="defs4" />
  <metadata
     id="metadata7">
    <rdf:RDF>
      <cc:Work
         rdf:about="">
        <dc:format>image/svg+xml</dc:format>
        <dc:type
           rdf:resource="http://purl.org/dc/dcmitype/StillImage" />
        <dc:title></dc:title>
      </cc:Work>
    </rdf:RDF>
  </metadata>
  <g
     transform="translate(0,0.00243262)"
     id="layer1">
    <path
       d="m 55.51036,975.41168 c 3.46054,-0.64748 6.76639,-1.6368 9.70217,-3.68737 2e-4,-4.1e-4 4e-4,-10e-4 6e-4,-0.003 3.36839,-2.35318 6.24359,-5.14836 9.40361,-7.76973 2.90811,-2.4124 6.9389,-1.62676 9.53666,0.44242 2.94728,2.34757 5.90708,5.6098 5.73821,9.41024 -0.11359,2.55614 -2.37247,4.40138 -4.25655,6.21774 -3.10854,2.99679 -6.25817,6.0482 -8.45988,9.86348 -2.39614,4.15219 -3.55203,8.84754 -3.46847,13.58474 l 0,7.7791 c -0.0836,4.7372 1.07233,9.4325 3.46847,13.5847 2.20171,3.8153 5.35134,6.8667 8.45988,9.8635 1.88408,1.8164 4.14296,3.6616 4.25655,6.2178 0.16887,3.8004 -2.79093,7.0626 -5.73821,9.4102 -2.59776,2.0692 -6.62855,2.8548 -9.53666,0.4424 -3.16002,-2.6214 -6.03522,-5.4165 -9.40361,-7.7697 -2e-4,-10e-4 -4e-4,0 -6e-4,0 -2.93578,-2.0506 -6.24163,-3.0399 -9.70217,-3.6874 -3.49593,-0.6541 -6.92383,-1.0334 -10.51036,-0.9463 -3.58652,-0.1026 -7.01442,0.2768 -10.51035,0.9309 -3.46055,0.6475 -6.76639,1.6368 -9.70217,3.6874 -2e-4,4e-4 -4.1e-4,10e-4 -6.1e-4,0 -3.36838,2.3531 -6.24358,5.1483 -9.4036,7.7697 -2.90811,2.4124 -6.9389002,1.6268 -9.5366702,-0.4424 -2.94727,-2.3476 -5.90707998,-5.6098 -5.73820998,-9.4103 0.1136,-2.5561 2.37247998,-4.4013 4.25655998,-6.2177 3.10854,-2.9968 6.2581702,-6.0482 8.4598802,-9.8635 2.39614,-4.1522 3.55202,-8.8475 3.46847,-13.5847 l 0,-7.7483 c 0.0836,-4.73719 -1.07233,-9.43254 -3.46847,-13.58473 -2.20171,-3.81528 -5.3513402,-6.86669 -8.4598802,-9.86347 -1.88408,-1.81637 -4.14295998,-3.66161 -4.25655998,-6.21775 -0.16887,-3.80044 2.79093998,-7.06267 5.73820998,-9.41024 2.59777,-2.06918 6.6285602,-2.85482 9.5366702,-0.44242 3.16002,2.62137 6.03522,5.41655 9.4036,7.76973 2e-4,10e-4 4.1e-4,0.002 6.1e-4,0.003 2.93578,2.05058 6.24162,3.0399 9.70217,3.68738 3.49593,0.65411 6.92383,1.03345 10.51035,0.93091 3.58653,0.0871 7.01443,-0.29222 10.51036,-0.94633 z"
       id="path3054-9-9"
       style="fill:none;stroke:#000000;stroke-width:0.20298147px;stroke-linecap:butt;stroke-linejoin:miter;stroke-opacity:1" />
    <flowRoot
       id="flowRoot3155"
       xml:space="preserve"
       style="font-size:12px;font-style:normal;font-weight:normal;line-height:125%;letter-spacing:0px;word-spacing:0px;fill:#000000;fill-opacity:1;stroke:none;font-family:Sans"><flowRegion
         id="flowRegion3157"><rect
           width="43.184021"
           height="41.668793"
           x="21.970818"
           y="986.95483"
           id="rect3159"
           style="font-size:12px" /></flowRegion><flowPara
         id="flowPara3161" /></flowRoot>    <flowRoot
       transform="translate(62.37692,9.5940165)"
       id="flowRoot3163"
       xml:space="preserve"
       style="font-size:12px;font-style:normal;font-weight:normal;text-align:center;line-height:125%;letter-spacing:0px;word-spacing:0px;text-anchor:middle;fill:#000000;fill-opacity:1;stroke:none;font-family:Sans"><flowRegion
         id="flowRegion3165"><rect
           width="57.326157"
           height="95.459473"
           x="-45.961941"
           y="980.13629"
           id="rect3167"
           style="font-size:12px;text-align:center;text-anchor:middle" /></flowRegion><flowPara
         id="flowPara3169">touch the stars</flowPara></flowRoot>  </g>
</svg>
